<svg id="IconKey" width="120" height="120" version="1.1" xmlns="http://www.w3.org/2000/svg" font-family="ArialMT,Arial,sans-serif">
    <rect id="background" color="#1c1c1c" fill="currentColor" x="0" y="0" width="120" height="120" />
    <g id="foreground" color="#dedede">
        <g id="icon" transform="translate(32.5 15)">
            <svg xmlns="http://www.w3.org/2000/svg" width="55" height="55" viewBox="0 0 256 256"><path fill="currentColor" d="M208 28H48a20 20 0 0 0-20 20v160a20 20 0 0 0 20 20h160a20 20 0 0 0 20-20V48a20 20 0 0 0-20-20m-4 159L69 52h135ZM52 69l135 135H52Z"/></svg>
        </g>
        <text id="label" x="60" y="100" font-size="18" text-anchor="middle" fill="currentColor">
            Icon Key
        </text>
        <g transform="translate(32.5 15)">
            <rect id="spinner_background" color="#1c1c1c" x="0"  y="0" width="55" height="55" rx="3" ry="3" fill="currentColor" fill-opacity="0.8" stroke="none"/>
            <svg id="spinner" x="3.5" y="3.5" color="#5c5b5b" display="none" width="48" height="48" viewBox="0 0 48 48" fill="none" xmlns="http://www.w3.org/2000/svg">
                <rect color="#dedede" x="22" width="4" height="12" rx="2" fill="currentColor"/>
                <rect x="22" y="36" width="4" height="12" rx="2" fill="currentColor"/>
                <rect y="26" width="4" height="12" rx="2" transform="rotate(-90 0 26)" fill="currentColor"/>
                <rect x="36" y="26" width="4" height="12" rx="2" transform="rotate(-90 36 26)" fill="currentColor"/>
                <rect x="5.61523" y="8.4436" width="4" height="12" rx="2" transform="rotate(-45 5.61523 8.4436)" fill="currentColor"/>
                <rect x="31.071" y="33.8995" width="4" height="12" rx="2" transform="rotate(-45 31.071 33.8995)" fill="currentColor"/>
                <rect x="8.4436" y="42.3848" width="4" height="12" rx="2" transform="rotate(-135 8.4436 42.3848)" fill="currentColor"/>
                <rect x="33.8994" y="16.9288" width="4" height="12" rx="2" transform="rotate(-135 33.8994 16.9288)" fill="currentColor"/>
            </svg>
        </g>
    </g>
</svg>