<svg xmlns="http://www.w3.org/2000/svg" id="IconKey" width="120" height="120" viewBox="0 0 120 120" version="1.1">
  <defs>
    <linearGradient id="backgroundGradient" x1="0%" y1="0%" x2="100%" y2="100%">
      <stop class="background-dark" offset="0%" stop-color="currentColor" />
      <stop class="background-light" offset="100%" stop-color="currentColor" />
    </linearGradient>
    <filter id="shadow" x="-100%" y="-100%" width="250%" height="250%">
      <feDropShadow dx="-1" dy="-1" stdDeviation="3" flood-color="black" flood-opacity=".5" />
    </filter>
  </defs>
  <rect id="background" class="background-dark" fill="currentColor" x="0" y="0" width="120" height="120" />
  <rect id="surface" stroke="none" fill="url(#backgroundGradient)" stroke-width="10" rx="10" ry="10" x="5" y="5" width="110" height="110" filter="url(#shadow)" />
  <g id="foreground" color="#dedede">
    <g id="icon" class="icon" transform="translate(32.5 20)" filter="url(#shadow)">
        <svg xmlns="http://www.w3.org/2000/svg" width="55" height="55" viewBox="0 0 256 256"><path fill="currentColor" d="M208 28H48a20 20 0 0 0-20 20v160a20 20 0 0 0 20 20h160a20 20 0 0 0 20-20V48a20 20 0 0 0-20-20m-4 159L69 52h135ZM52 69l135 135H52Z"/></svg>
    </g>
    <g id="notification" transform="translate(82.5 25)" filter="url(#shadow)">
      <circle class="error" cx="0" cy="0" r="15" fill="currentColor" />
      <text id="notification_count" class="text-primary" x="0" y="2" font-size="18" fill="currentColor" text-anchor="middle" dominant-baseline="middle">2</text>
    </g>
    <text id="label" class="text-primary" x="60" y="100" font-size="18" text-anchor="middle" fill="currentColor" filter="url(#shadow)">
      Icon Key
    </text>
    <g transform="translate(60 47.5)">
      <g id="spinner"/>
    </g>
  </g>
  <rect id="halo" display="none" class="success" stroke="currentColor" fill="none" stroke-width="10" rx="10" ry="10" x="5" y="5" width="110" height="110" />
</svg>